<?xml version="1.0"?>
<svg xmlns="http://www.w3.org/2000/svg" xmlns:xlink="http://www.w3.org/1999/xlink" xmlns:svgjs="http://svgjs.com/svgjs" version="1.1" width="512" height="512" x="0" y="0" viewBox="0 0 512 512" style="enable-background:new 0 0 512 512" xml:space="preserve" class=""><g>
<g xmlns="http://www.w3.org/2000/svg">
	<path style="" d="M421,90H91c-8.284,0-15-6.716-15-15s6.716-15,15-15h330c8.284,0,15,6.716,15,15S429.284,90,421,90z" fill="#818181" data-original="#a4d9f5" class=""/>
	<path style="" d="M421,422H91c-8.284,0-15-6.716-15-15s6.716-15,15-15h330c8.284,0,15,6.716,15,15   S429.284,422,421,422z" fill="#818181" data-original="#a4d9f5" class=""/>
</g>
<path xmlns="http://www.w3.org/2000/svg" style="" d="M391,512H121c-24.813,0-45-20.187-45-45V45c0-24.813,20.187-45,45-45h270c24.813,0,45,20.187,45,45  v422C436,491.813,415.813,512,391,512z M121,30c-8.271,0-15,6.729-15,15v422c0,8.271,6.729,15,15,15h270c8.271,0,15-6.729,15-15V45  c0-8.271-6.729-15-15-15H121z" fill="#28eeca" data-original="#136ef1" class=""/>
<g xmlns="http://www.w3.org/2000/svg">
	<path style="" d="M166,272c-16.542,0-30-13.458-30-30s13.458-30,30-30s30,13.458,30,30S182.542,272,166,272z    M165.999,241.981L166,242C166,241.987,165.999,241.981,165.999,241.981z" fill="#f2f2f2" data-original="#1de8f1" class=""/>
	<path style="" d="M256,272c-16.542,0-30-13.458-30-30s13.458-30,30-30s30,13.458,30,30S272.542,272,256,272z    M255.999,241.981L256,242C256,241.987,255.999,241.981,255.999,241.981z" fill="#f2f2f2" data-original="#1de8f1" class=""/>
	<path style="" d="M346,272c-16.542,0-30-13.458-30-30s13.458-30,30-30s30,13.458,30,30S362.542,272,346,272z    M345.999,241.981L346,242C346,241.987,345.999,241.981,345.999,241.981z" fill="#f2f2f2" data-original="#1de8f1" class=""/>
</g>
<g xmlns="http://www.w3.org/2000/svg">
</g>
<g xmlns="http://www.w3.org/2000/svg">
</g>
<g xmlns="http://www.w3.org/2000/svg">
</g>
<g xmlns="http://www.w3.org/2000/svg">
</g>
<g xmlns="http://www.w3.org/2000/svg">
</g>
<g xmlns="http://www.w3.org/2000/svg">
</g>
<g xmlns="http://www.w3.org/2000/svg">
</g>
<g xmlns="http://www.w3.org/2000/svg">
</g>
<g xmlns="http://www.w3.org/2000/svg">
</g>
<g xmlns="http://www.w3.org/2000/svg">
</g>
<g xmlns="http://www.w3.org/2000/svg">
</g>
<g xmlns="http://www.w3.org/2000/svg">
</g>
<g xmlns="http://www.w3.org/2000/svg">
</g>
<g xmlns="http://www.w3.org/2000/svg">
</g>
<g xmlns="http://www.w3.org/2000/svg">
</g>
</g></svg>
